# xmcd
#
# Track frame offsets:
#  150
#  22617
#  43155
#  56492
#  69920
#  81550
#  101402
#  115675
#  136120
#  153740
#  181660
#  198650
#  220257
#
# Disc length: 3103 seconds
#
# Revision: 0
# Processed by: cddbd v1.5.1PL0 Copyright (c) Steve Scherf et al.
# Submitted via: Collectorz.com Music Collector 6.9
#
DISCID=aa0c1d0d
DTITLE=Dusty Rhodes and The Bluesmobile - You Asked For It
DYEAR=1993
DGENRE=Electric Blues
TTITLE0=driving alone
TTITLE1=time and time before
TTITLE2=stoop down baby
TTITLE3=boom boom boom
TTITLE4=gypsy blues man
TTITLE5=who's been talking
TTITLE6=I was cool
TTITLE7=one more for the road
TTITLE8=biker blues
TTITLE9=I wonder who
TTITLE10=baby please don't go
TTITLE11=hey joe
TTITLE12=Mr banker
EXTD=
EXTT0=
EXTT1=
EXTT2=
EXTT3=
EXTT4=
EXTT5=
EXTT6=
EXTT7=
EXTT8=
EXTT9=
EXTT10=
EXTT11=
EXTT12=
PLAYORDER=
